<mxfile host="app.diagrams.net" modified="2023-12-07T15:26:41.020Z" agent="Mozilla/5.0 (Windows NT 10.0; Win64; x64) AppleWebKit/537.36 (KHTML, like Gecko) Chrome/120.0.0.0 Safari/537.36" version="21.7.4" etag="RFV7p9GBZ4AwON3Vjvqj" type="github">
  <diagram name="ページ1" id="6KOSo3iVm8i0nq8_HHRF">
    <mxGraphModel>
      <root>
        <mxCell id="0" />
        <mxCell id="1" parent="0" />
      </root>
    </mxGraphModel>
  </diagram>
</mxfile>
